M48
; DRILL file {KiCad 5.1.10-88a1d61d58~90~ubuntu21.04.1} date Tue Aug  3 21:10:39 2021
; FORMAT={-:-/ absolute / inch / decimal}
; #@! TF.CreationDate,2021-08-03T21:10:39+05:30
; #@! TF.GenerationSoftware,Kicad,Pcbnew,5.1.10-88a1d61d58~90~ubuntu21.04.1
; #@! TF.FileFunction,Plated,1,2,PTH
FMAT,2
INCH
T1C0.0157
T2C0.0315
T3C0.0394
T4C0.0866
%
G90
G05
T1
X5.0906Y-3.6929
X5.1811Y-3.8425
X5.3661Y-3.189
X5.6142Y-3.6417
X5.6142Y-3.7362
X5.6575Y-3.4449
X5.6654Y-3.1063
X5.6772Y-4.0039
X5.689Y-3.2165
X5.689Y-3.5197
X5.8583Y-3.4724
X5.8826Y-3.1801
X5.9055Y-3.5827
X5.9331Y-3.1772
X5.9449Y-3.626
X6.0118Y-3.748
X6.0276Y-3.2087
X6.0669Y-3.2992
X6.2598Y-3.689
X6.2598Y-3.8543
X6.3346Y-3.7677
X6.3701Y-3.2441
T2
X6.2756Y-3.1457
X6.2756Y-3.2244
T3
X5.185Y-3.7677
X5.2835Y-3.7677
T4
X5.1339Y-3.3661
X6.3071Y-3.374
T0
M30
