%TF.GenerationSoftware,KiCad,Pcbnew,5.1.10-88a1d61d58~90~ubuntu21.04.1*%
%TF.CreationDate,2021-08-03T21:09:56+05:30*%
%TF.ProjectId,The Sixth Eye KiCAD,54686520-5369-4787-9468-20457965204b,v2*%
%TF.SameCoordinates,Original*%
%TF.FileFunction,Copper,L2,Bot*%
%TF.FilePolarity,Positive*%
%FSLAX46Y46*%
G04 Gerber Fmt 4.6, Leading zero omitted, Abs format (unit mm)*
G04 Created by KiCad (PCBNEW 5.1.10-88a1d61d58~90~ubuntu21.04.1) date 2021-08-03 21:09:56*
%MOMM*%
%LPD*%
G01*
G04 APERTURE LIST*
%TA.AperFunction,ComponentPad*%
%ADD10O,1.350000X1.350000*%
%TD*%
%TA.AperFunction,ComponentPad*%
%ADD11R,1.350000X1.350000*%
%TD*%
%TA.AperFunction,ConnectorPad*%
%ADD12C,3.800000*%
%TD*%
%TA.AperFunction,ComponentPad*%
%ADD13C,2.600000*%
%TD*%
%TA.AperFunction,ComponentPad*%
%ADD14O,1.700000X2.000000*%
%TD*%
%TA.AperFunction,ViaPad*%
%ADD15C,0.800000*%
%TD*%
%TA.AperFunction,Conductor*%
%ADD16C,0.250000*%
%TD*%
%TA.AperFunction,Conductor*%
%ADD17C,0.254000*%
%TD*%
%TA.AperFunction,Conductor*%
%ADD18C,0.100000*%
%TD*%
G04 APERTURE END LIST*
D10*
%TO.P,J1,2*%
%TO.N,Out*%
X159400000Y-79900000D03*
D11*
%TO.P,J1,1*%
%TO.N,GND*%
X159400000Y-81900000D03*
%TD*%
D12*
%TO.P,H1,1*%
%TO.N,GND*%
X130400000Y-85500000D03*
D13*
X130400000Y-85500000D03*
%TD*%
%TO.P,H2,1*%
%TO.N,GND*%
X160200000Y-85700000D03*
D12*
X160200000Y-85700000D03*
%TD*%
%TO.P,J2,1*%
%TO.N,GND*%
%TA.AperFunction,ComponentPad*%
G36*
G01*
X130850000Y-96450000D02*
X130850000Y-94950000D01*
G75*
G02*
X131100000Y-94700000I250000J0D01*
G01*
X132300000Y-94700000D01*
G75*
G02*
X132550000Y-94950000I0J-250000D01*
G01*
X132550000Y-96450000D01*
G75*
G02*
X132300000Y-96700000I-250000J0D01*
G01*
X131100000Y-96700000D01*
G75*
G02*
X130850000Y-96450000I0J250000D01*
G01*
G37*
%TD.AperFunction*%
D14*
%TO.P,J2,2*%
%TO.N,Vin*%
X134200000Y-95700000D03*
%TD*%
D15*
%TO.N,3.3v*%
X144500000Y-81700000D03*
X154100000Y-83800000D03*
%TO.N,GND*%
X136300000Y-81000000D03*
X143900000Y-78900000D03*
X159000000Y-93700000D03*
X160900000Y-95700000D03*
X159000000Y-97900000D03*
X131600000Y-97600000D03*
X129300000Y-93800000D03*
X144200000Y-101700000D03*
X144500000Y-89400000D03*
X161800000Y-82400000D03*
X153100000Y-81500000D03*
X148800000Y-88200000D03*
%TO.N,VDD_IO*%
X142600000Y-92500000D03*
X143700000Y-87500000D03*
%TO.N,MOSI*%
X150700000Y-80700000D03*
X151000001Y-92100000D03*
%TO.N,MISO*%
X150000000Y-91000000D03*
X149418156Y-80775000D03*
%TO.N,INT1*%
X152700000Y-95200000D03*
X142600000Y-94900000D03*
%TD*%
D16*
%TO.N,3.3v*%
X146125001Y-80074999D02*
X144500000Y-81700000D01*
X146600000Y-79600000D02*
X146125001Y-80074999D01*
X153100000Y-79600000D02*
X146600000Y-79600000D01*
X154100000Y-80600000D02*
X153100000Y-79600000D01*
X154100000Y-83800000D02*
X154100000Y-80600000D01*
%TO.N,GND*%
X153100000Y-81500000D02*
X153100000Y-82200000D01*
X153100000Y-87800000D02*
X159000000Y-93700000D01*
X153100000Y-81500000D02*
X153100000Y-87800000D01*
%TO.N,VDD_IO*%
X143700000Y-91400000D02*
X143700000Y-87500000D01*
X142600000Y-92500000D02*
X143700000Y-91400000D01*
%TO.N,MOSI*%
X151000001Y-81000001D02*
X151000001Y-92100000D01*
X150700000Y-80700000D02*
X151000001Y-81000001D01*
%TO.N,MISO*%
X149418156Y-80775000D02*
X149418156Y-81518156D01*
X150000000Y-82100000D02*
X150000000Y-91000000D01*
X149418156Y-81518156D02*
X150000000Y-82100000D01*
%TO.N,INT1*%
X142900000Y-95200000D02*
X142600000Y-94900000D01*
X152700000Y-95200000D02*
X142900000Y-95200000D01*
%TD*%
D17*
%TO.N,GND*%
X162440000Y-84507793D02*
X162332867Y-84307362D01*
X161976349Y-84103256D01*
X160379605Y-85700000D01*
X161976349Y-87296744D01*
X162332867Y-87092638D01*
X162440000Y-86886988D01*
X162440001Y-102640000D01*
X127860000Y-102640000D01*
X127860000Y-96700000D01*
X130211928Y-96700000D01*
X130224188Y-96824482D01*
X130260498Y-96944180D01*
X130319463Y-97054494D01*
X130398815Y-97151185D01*
X130495506Y-97230537D01*
X130605820Y-97289502D01*
X130725518Y-97325812D01*
X130850000Y-97338072D01*
X131414250Y-97335000D01*
X131573000Y-97176250D01*
X131573000Y-95827000D01*
X130373750Y-95827000D01*
X130215000Y-95985750D01*
X130211928Y-96700000D01*
X127860000Y-96700000D01*
X127860000Y-94700000D01*
X130211928Y-94700000D01*
X130215000Y-95414250D01*
X130373750Y-95573000D01*
X131573000Y-95573000D01*
X131573000Y-94223750D01*
X131827000Y-94223750D01*
X131827000Y-95573000D01*
X131847000Y-95573000D01*
X131847000Y-95827000D01*
X131827000Y-95827000D01*
X131827000Y-97176250D01*
X131985750Y-97335000D01*
X132550000Y-97338072D01*
X132674482Y-97325812D01*
X132794180Y-97289502D01*
X132904494Y-97230537D01*
X133001185Y-97151185D01*
X133080537Y-97054494D01*
X133139502Y-96944180D01*
X133150055Y-96909392D01*
X133370987Y-97090706D01*
X133628967Y-97228599D01*
X133908890Y-97313513D01*
X134200000Y-97342185D01*
X134491111Y-97313513D01*
X134771034Y-97228599D01*
X135029014Y-97090706D01*
X135255134Y-96905134D01*
X135440706Y-96679014D01*
X135578599Y-96421033D01*
X135663513Y-96141110D01*
X135685000Y-95922949D01*
X135685000Y-95477050D01*
X135663513Y-95258889D01*
X135578599Y-94978966D01*
X135481904Y-94798061D01*
X141565000Y-94798061D01*
X141565000Y-95001939D01*
X141604774Y-95201898D01*
X141682795Y-95390256D01*
X141796063Y-95559774D01*
X141940226Y-95703937D01*
X142109744Y-95817205D01*
X142298102Y-95895226D01*
X142498061Y-95935000D01*
X142701939Y-95935000D01*
X142703698Y-95934650D01*
X142751014Y-95949003D01*
X142862667Y-95960000D01*
X142862676Y-95960000D01*
X142899999Y-95963676D01*
X142937322Y-95960000D01*
X151996289Y-95960000D01*
X152040226Y-96003937D01*
X152209744Y-96117205D01*
X152398102Y-96195226D01*
X152598061Y-96235000D01*
X152801939Y-96235000D01*
X153001898Y-96195226D01*
X153190256Y-96117205D01*
X153359774Y-96003937D01*
X153503937Y-95859774D01*
X153617205Y-95690256D01*
X153695226Y-95501898D01*
X153735000Y-95301939D01*
X153735000Y-95098061D01*
X153695226Y-94898102D01*
X153617205Y-94709744D01*
X153503937Y-94540226D01*
X153359774Y-94396063D01*
X153190256Y-94282795D01*
X153001898Y-94204774D01*
X152801939Y-94165000D01*
X152598061Y-94165000D01*
X152398102Y-94204774D01*
X152209744Y-94282795D01*
X152040226Y-94396063D01*
X151996289Y-94440000D01*
X143529738Y-94440000D01*
X143517205Y-94409744D01*
X143403937Y-94240226D01*
X143259774Y-94096063D01*
X143090256Y-93982795D01*
X142901898Y-93904774D01*
X142701939Y-93865000D01*
X142498061Y-93865000D01*
X142298102Y-93904774D01*
X142109744Y-93982795D01*
X141940226Y-94096063D01*
X141796063Y-94240226D01*
X141682795Y-94409744D01*
X141604774Y-94598102D01*
X141565000Y-94798061D01*
X135481904Y-94798061D01*
X135440706Y-94720986D01*
X135255134Y-94494866D01*
X135029013Y-94309294D01*
X134771033Y-94171401D01*
X134491110Y-94086487D01*
X134200000Y-94057815D01*
X133908889Y-94086487D01*
X133628966Y-94171401D01*
X133370986Y-94309294D01*
X133150055Y-94490608D01*
X133139502Y-94455820D01*
X133080537Y-94345506D01*
X133001185Y-94248815D01*
X132904494Y-94169463D01*
X132794180Y-94110498D01*
X132674482Y-94074188D01*
X132550000Y-94061928D01*
X131985750Y-94065000D01*
X131827000Y-94223750D01*
X131573000Y-94223750D01*
X131414250Y-94065000D01*
X130850000Y-94061928D01*
X130725518Y-94074188D01*
X130605820Y-94110498D01*
X130495506Y-94169463D01*
X130398815Y-94248815D01*
X130319463Y-94345506D01*
X130260498Y-94455820D01*
X130224188Y-94575518D01*
X130211928Y-94700000D01*
X127860000Y-94700000D01*
X127860000Y-92398061D01*
X141565000Y-92398061D01*
X141565000Y-92601939D01*
X141604774Y-92801898D01*
X141682795Y-92990256D01*
X141796063Y-93159774D01*
X141940226Y-93303937D01*
X142109744Y-93417205D01*
X142298102Y-93495226D01*
X142498061Y-93535000D01*
X142701939Y-93535000D01*
X142901898Y-93495226D01*
X143090256Y-93417205D01*
X143259774Y-93303937D01*
X143403937Y-93159774D01*
X143517205Y-92990256D01*
X143595226Y-92801898D01*
X143635000Y-92601939D01*
X143635000Y-92539801D01*
X144211004Y-91963798D01*
X144240001Y-91940001D01*
X144266332Y-91907917D01*
X144334974Y-91824277D01*
X144405546Y-91692247D01*
X144422919Y-91634974D01*
X144449003Y-91548986D01*
X144460000Y-91437333D01*
X144460000Y-91437323D01*
X144463676Y-91400000D01*
X144460000Y-91362677D01*
X144460000Y-88203711D01*
X144503937Y-88159774D01*
X144617205Y-87990256D01*
X144695226Y-87801898D01*
X144735000Y-87601939D01*
X144735000Y-87398061D01*
X144695226Y-87198102D01*
X144617205Y-87009744D01*
X144503937Y-86840226D01*
X144359774Y-86696063D01*
X144190256Y-86582795D01*
X144001898Y-86504774D01*
X143801939Y-86465000D01*
X143598061Y-86465000D01*
X143398102Y-86504774D01*
X143209744Y-86582795D01*
X143040226Y-86696063D01*
X142896063Y-86840226D01*
X142782795Y-87009744D01*
X142704774Y-87198102D01*
X142665000Y-87398061D01*
X142665000Y-87601939D01*
X142704774Y-87801898D01*
X142782795Y-87990256D01*
X142896063Y-88159774D01*
X142940001Y-88203712D01*
X142940000Y-91085198D01*
X142560199Y-91465000D01*
X142498061Y-91465000D01*
X142298102Y-91504774D01*
X142109744Y-91582795D01*
X141940226Y-91696063D01*
X141796063Y-91840226D01*
X141682795Y-92009744D01*
X141604774Y-92198102D01*
X141565000Y-92398061D01*
X127860000Y-92398061D01*
X127860000Y-87276349D01*
X128803256Y-87276349D01*
X129007362Y-87632867D01*
X129450223Y-87863575D01*
X129929583Y-88003452D01*
X130427021Y-88047123D01*
X130923422Y-87992909D01*
X131399707Y-87842894D01*
X131792638Y-87632867D01*
X131996744Y-87276349D01*
X130400000Y-85679605D01*
X128803256Y-87276349D01*
X127860000Y-87276349D01*
X127860000Y-85592242D01*
X127907091Y-86023422D01*
X128057106Y-86499707D01*
X128267133Y-86892638D01*
X128623651Y-87096744D01*
X130220395Y-85500000D01*
X130579605Y-85500000D01*
X132176349Y-87096744D01*
X132532867Y-86892638D01*
X132763575Y-86449777D01*
X132903452Y-85970417D01*
X132947123Y-85472979D01*
X132892909Y-84976578D01*
X132742894Y-84500293D01*
X132532867Y-84107362D01*
X132176349Y-83903256D01*
X130579605Y-85500000D01*
X130220395Y-85500000D01*
X128623651Y-83903256D01*
X128267133Y-84107362D01*
X128036425Y-84550223D01*
X127896548Y-85029583D01*
X127860000Y-85445886D01*
X127860000Y-83723651D01*
X128803256Y-83723651D01*
X130400000Y-85320395D01*
X131996744Y-83723651D01*
X131792638Y-83367133D01*
X131349777Y-83136425D01*
X130870417Y-82996548D01*
X130372979Y-82952877D01*
X129876578Y-83007091D01*
X129400293Y-83157106D01*
X129007362Y-83367133D01*
X128803256Y-83723651D01*
X127860000Y-83723651D01*
X127860000Y-81598061D01*
X143465000Y-81598061D01*
X143465000Y-81801939D01*
X143504774Y-82001898D01*
X143582795Y-82190256D01*
X143696063Y-82359774D01*
X143840226Y-82503937D01*
X144009744Y-82617205D01*
X144198102Y-82695226D01*
X144398061Y-82735000D01*
X144601939Y-82735000D01*
X144801898Y-82695226D01*
X144990256Y-82617205D01*
X145159774Y-82503937D01*
X145303937Y-82359774D01*
X145417205Y-82190256D01*
X145495226Y-82001898D01*
X145535000Y-81801939D01*
X145535000Y-81739802D01*
X146688800Y-80586003D01*
X146688809Y-80585992D01*
X146914801Y-80360000D01*
X148469779Y-80360000D01*
X148422930Y-80473102D01*
X148383156Y-80673061D01*
X148383156Y-80876939D01*
X148422930Y-81076898D01*
X148500951Y-81265256D01*
X148614219Y-81434774D01*
X148658156Y-81478711D01*
X148658156Y-81480834D01*
X148654480Y-81518156D01*
X148658156Y-81555478D01*
X148658156Y-81555489D01*
X148669153Y-81667142D01*
X148697473Y-81760500D01*
X148712610Y-81810402D01*
X148783182Y-81942432D01*
X148824064Y-81992246D01*
X148878156Y-82058157D01*
X148907154Y-82081955D01*
X149240000Y-82414802D01*
X149240001Y-90296288D01*
X149196063Y-90340226D01*
X149082795Y-90509744D01*
X149004774Y-90698102D01*
X148965000Y-90898061D01*
X148965000Y-91101939D01*
X149004774Y-91301898D01*
X149082795Y-91490256D01*
X149196063Y-91659774D01*
X149340226Y-91803937D01*
X149509744Y-91917205D01*
X149698102Y-91995226D01*
X149898061Y-92035000D01*
X149965001Y-92035000D01*
X149965001Y-92201939D01*
X150004775Y-92401898D01*
X150082796Y-92590256D01*
X150196064Y-92759774D01*
X150340227Y-92903937D01*
X150509745Y-93017205D01*
X150698103Y-93095226D01*
X150898062Y-93135000D01*
X151101940Y-93135000D01*
X151301899Y-93095226D01*
X151490257Y-93017205D01*
X151659775Y-92903937D01*
X151803938Y-92759774D01*
X151917206Y-92590256D01*
X151995227Y-92401898D01*
X152035001Y-92201939D01*
X152035001Y-91998061D01*
X151995227Y-91798102D01*
X151917206Y-91609744D01*
X151803938Y-91440226D01*
X151760001Y-91396289D01*
X151760001Y-87476349D01*
X158603256Y-87476349D01*
X158807362Y-87832867D01*
X159250223Y-88063575D01*
X159729583Y-88203452D01*
X160227021Y-88247123D01*
X160723422Y-88192909D01*
X161199707Y-88042894D01*
X161592638Y-87832867D01*
X161796744Y-87476349D01*
X160200000Y-85879605D01*
X158603256Y-87476349D01*
X151760001Y-87476349D01*
X151760001Y-85727021D01*
X157652877Y-85727021D01*
X157707091Y-86223422D01*
X157857106Y-86699707D01*
X158067133Y-87092638D01*
X158423651Y-87296744D01*
X160020395Y-85700000D01*
X158423651Y-84103256D01*
X158067133Y-84307362D01*
X157836425Y-84750223D01*
X157696548Y-85229583D01*
X157652877Y-85727021D01*
X151760001Y-85727021D01*
X151760001Y-81037323D01*
X151763677Y-81000000D01*
X151760001Y-80962677D01*
X151760001Y-80962668D01*
X151749004Y-80851015D01*
X151734650Y-80803697D01*
X151735000Y-80801939D01*
X151735000Y-80598061D01*
X151695226Y-80398102D01*
X151679444Y-80360000D01*
X152785199Y-80360000D01*
X153340001Y-80914803D01*
X153340000Y-83096289D01*
X153296063Y-83140226D01*
X153182795Y-83309744D01*
X153104774Y-83498102D01*
X153065000Y-83698061D01*
X153065000Y-83901939D01*
X153104774Y-84101898D01*
X153182795Y-84290256D01*
X153296063Y-84459774D01*
X153440226Y-84603937D01*
X153609744Y-84717205D01*
X153798102Y-84795226D01*
X153998061Y-84835000D01*
X154201939Y-84835000D01*
X154401898Y-84795226D01*
X154590256Y-84717205D01*
X154759774Y-84603937D01*
X154903937Y-84459774D01*
X155017205Y-84290256D01*
X155095226Y-84101898D01*
X155130681Y-83923651D01*
X158603256Y-83923651D01*
X160200000Y-85520395D01*
X161796744Y-83923651D01*
X161592638Y-83567133D01*
X161149777Y-83336425D01*
X160670417Y-83196548D01*
X160316086Y-83165441D01*
X160319180Y-83164502D01*
X160429494Y-83105537D01*
X160526185Y-83026185D01*
X160605537Y-82929494D01*
X160664502Y-82819180D01*
X160700812Y-82699482D01*
X160713072Y-82575000D01*
X160710000Y-82185750D01*
X160551250Y-82027000D01*
X159527000Y-82027000D01*
X159527000Y-83051250D01*
X159682224Y-83206474D01*
X159676578Y-83207091D01*
X159200293Y-83357106D01*
X158807362Y-83567133D01*
X158603256Y-83923651D01*
X155130681Y-83923651D01*
X155135000Y-83901939D01*
X155135000Y-83698061D01*
X155095226Y-83498102D01*
X155017205Y-83309744D01*
X154903937Y-83140226D01*
X154860000Y-83096289D01*
X154860000Y-82575000D01*
X158086928Y-82575000D01*
X158099188Y-82699482D01*
X158135498Y-82819180D01*
X158194463Y-82929494D01*
X158273815Y-83026185D01*
X158370506Y-83105537D01*
X158480820Y-83164502D01*
X158600518Y-83200812D01*
X158725000Y-83213072D01*
X159114250Y-83210000D01*
X159273000Y-83051250D01*
X159273000Y-82027000D01*
X158248750Y-82027000D01*
X158090000Y-82185750D01*
X158086928Y-82575000D01*
X154860000Y-82575000D01*
X154860000Y-81225000D01*
X158086928Y-81225000D01*
X158090000Y-81614250D01*
X158248750Y-81773000D01*
X159273000Y-81773000D01*
X159273000Y-81753000D01*
X159527000Y-81753000D01*
X159527000Y-81773000D01*
X160551250Y-81773000D01*
X160710000Y-81614250D01*
X160713072Y-81225000D01*
X160700812Y-81100518D01*
X160664502Y-80980820D01*
X160605537Y-80870506D01*
X160526185Y-80773815D01*
X160439303Y-80702513D01*
X160560907Y-80520518D01*
X160659658Y-80282113D01*
X160710000Y-80029024D01*
X160710000Y-79770976D01*
X160659658Y-79517887D01*
X160560907Y-79279482D01*
X160417544Y-79064923D01*
X160235077Y-78882456D01*
X160020518Y-78739093D01*
X159782113Y-78640342D01*
X159529024Y-78590000D01*
X159270976Y-78590000D01*
X159017887Y-78640342D01*
X158779482Y-78739093D01*
X158564923Y-78882456D01*
X158382456Y-79064923D01*
X158239093Y-79279482D01*
X158140342Y-79517887D01*
X158090000Y-79770976D01*
X158090000Y-80029024D01*
X158140342Y-80282113D01*
X158239093Y-80520518D01*
X158360697Y-80702513D01*
X158273815Y-80773815D01*
X158194463Y-80870506D01*
X158135498Y-80980820D01*
X158099188Y-81100518D01*
X158086928Y-81225000D01*
X154860000Y-81225000D01*
X154860000Y-80637333D01*
X154863677Y-80600000D01*
X154849003Y-80451014D01*
X154805546Y-80307753D01*
X154734974Y-80175724D01*
X154663799Y-80088997D01*
X154640001Y-80059999D01*
X154611003Y-80036201D01*
X153663804Y-79089002D01*
X153640001Y-79059999D01*
X153524276Y-78965026D01*
X153392247Y-78894454D01*
X153248986Y-78850997D01*
X153137333Y-78840000D01*
X153137322Y-78840000D01*
X153100000Y-78836324D01*
X153062678Y-78840000D01*
X146637322Y-78840000D01*
X146599999Y-78836324D01*
X146562676Y-78840000D01*
X146562667Y-78840000D01*
X146451014Y-78850997D01*
X146347306Y-78882456D01*
X146307753Y-78894454D01*
X146175723Y-78965026D01*
X146133146Y-78999969D01*
X146059999Y-79059999D01*
X146036196Y-79089003D01*
X145614008Y-79511191D01*
X145613997Y-79511200D01*
X144460198Y-80665000D01*
X144398061Y-80665000D01*
X144198102Y-80704774D01*
X144009744Y-80782795D01*
X143840226Y-80896063D01*
X143696063Y-81040226D01*
X143582795Y-81209744D01*
X143504774Y-81398102D01*
X143465000Y-81598061D01*
X127860000Y-81598061D01*
X127860000Y-76860000D01*
X162440000Y-76860000D01*
X162440000Y-84507793D01*
%TA.AperFunction,Conductor*%
D18*
G36*
X162440000Y-84507793D02*
G01*
X162332867Y-84307362D01*
X161976349Y-84103256D01*
X160379605Y-85700000D01*
X161976349Y-87296744D01*
X162332867Y-87092638D01*
X162440000Y-86886988D01*
X162440001Y-102640000D01*
X127860000Y-102640000D01*
X127860000Y-96700000D01*
X130211928Y-96700000D01*
X130224188Y-96824482D01*
X130260498Y-96944180D01*
X130319463Y-97054494D01*
X130398815Y-97151185D01*
X130495506Y-97230537D01*
X130605820Y-97289502D01*
X130725518Y-97325812D01*
X130850000Y-97338072D01*
X131414250Y-97335000D01*
X131573000Y-97176250D01*
X131573000Y-95827000D01*
X130373750Y-95827000D01*
X130215000Y-95985750D01*
X130211928Y-96700000D01*
X127860000Y-96700000D01*
X127860000Y-94700000D01*
X130211928Y-94700000D01*
X130215000Y-95414250D01*
X130373750Y-95573000D01*
X131573000Y-95573000D01*
X131573000Y-94223750D01*
X131827000Y-94223750D01*
X131827000Y-95573000D01*
X131847000Y-95573000D01*
X131847000Y-95827000D01*
X131827000Y-95827000D01*
X131827000Y-97176250D01*
X131985750Y-97335000D01*
X132550000Y-97338072D01*
X132674482Y-97325812D01*
X132794180Y-97289502D01*
X132904494Y-97230537D01*
X133001185Y-97151185D01*
X133080537Y-97054494D01*
X133139502Y-96944180D01*
X133150055Y-96909392D01*
X133370987Y-97090706D01*
X133628967Y-97228599D01*
X133908890Y-97313513D01*
X134200000Y-97342185D01*
X134491111Y-97313513D01*
X134771034Y-97228599D01*
X135029014Y-97090706D01*
X135255134Y-96905134D01*
X135440706Y-96679014D01*
X135578599Y-96421033D01*
X135663513Y-96141110D01*
X135685000Y-95922949D01*
X135685000Y-95477050D01*
X135663513Y-95258889D01*
X135578599Y-94978966D01*
X135481904Y-94798061D01*
X141565000Y-94798061D01*
X141565000Y-95001939D01*
X141604774Y-95201898D01*
X141682795Y-95390256D01*
X141796063Y-95559774D01*
X141940226Y-95703937D01*
X142109744Y-95817205D01*
X142298102Y-95895226D01*
X142498061Y-95935000D01*
X142701939Y-95935000D01*
X142703698Y-95934650D01*
X142751014Y-95949003D01*
X142862667Y-95960000D01*
X142862676Y-95960000D01*
X142899999Y-95963676D01*
X142937322Y-95960000D01*
X151996289Y-95960000D01*
X152040226Y-96003937D01*
X152209744Y-96117205D01*
X152398102Y-96195226D01*
X152598061Y-96235000D01*
X152801939Y-96235000D01*
X153001898Y-96195226D01*
X153190256Y-96117205D01*
X153359774Y-96003937D01*
X153503937Y-95859774D01*
X153617205Y-95690256D01*
X153695226Y-95501898D01*
X153735000Y-95301939D01*
X153735000Y-95098061D01*
X153695226Y-94898102D01*
X153617205Y-94709744D01*
X153503937Y-94540226D01*
X153359774Y-94396063D01*
X153190256Y-94282795D01*
X153001898Y-94204774D01*
X152801939Y-94165000D01*
X152598061Y-94165000D01*
X152398102Y-94204774D01*
X152209744Y-94282795D01*
X152040226Y-94396063D01*
X151996289Y-94440000D01*
X143529738Y-94440000D01*
X143517205Y-94409744D01*
X143403937Y-94240226D01*
X143259774Y-94096063D01*
X143090256Y-93982795D01*
X142901898Y-93904774D01*
X142701939Y-93865000D01*
X142498061Y-93865000D01*
X142298102Y-93904774D01*
X142109744Y-93982795D01*
X141940226Y-94096063D01*
X141796063Y-94240226D01*
X141682795Y-94409744D01*
X141604774Y-94598102D01*
X141565000Y-94798061D01*
X135481904Y-94798061D01*
X135440706Y-94720986D01*
X135255134Y-94494866D01*
X135029013Y-94309294D01*
X134771033Y-94171401D01*
X134491110Y-94086487D01*
X134200000Y-94057815D01*
X133908889Y-94086487D01*
X133628966Y-94171401D01*
X133370986Y-94309294D01*
X133150055Y-94490608D01*
X133139502Y-94455820D01*
X133080537Y-94345506D01*
X133001185Y-94248815D01*
X132904494Y-94169463D01*
X132794180Y-94110498D01*
X132674482Y-94074188D01*
X132550000Y-94061928D01*
X131985750Y-94065000D01*
X131827000Y-94223750D01*
X131573000Y-94223750D01*
X131414250Y-94065000D01*
X130850000Y-94061928D01*
X130725518Y-94074188D01*
X130605820Y-94110498D01*
X130495506Y-94169463D01*
X130398815Y-94248815D01*
X130319463Y-94345506D01*
X130260498Y-94455820D01*
X130224188Y-94575518D01*
X130211928Y-94700000D01*
X127860000Y-94700000D01*
X127860000Y-92398061D01*
X141565000Y-92398061D01*
X141565000Y-92601939D01*
X141604774Y-92801898D01*
X141682795Y-92990256D01*
X141796063Y-93159774D01*
X141940226Y-93303937D01*
X142109744Y-93417205D01*
X142298102Y-93495226D01*
X142498061Y-93535000D01*
X142701939Y-93535000D01*
X142901898Y-93495226D01*
X143090256Y-93417205D01*
X143259774Y-93303937D01*
X143403937Y-93159774D01*
X143517205Y-92990256D01*
X143595226Y-92801898D01*
X143635000Y-92601939D01*
X143635000Y-92539801D01*
X144211004Y-91963798D01*
X144240001Y-91940001D01*
X144266332Y-91907917D01*
X144334974Y-91824277D01*
X144405546Y-91692247D01*
X144422919Y-91634974D01*
X144449003Y-91548986D01*
X144460000Y-91437333D01*
X144460000Y-91437323D01*
X144463676Y-91400000D01*
X144460000Y-91362677D01*
X144460000Y-88203711D01*
X144503937Y-88159774D01*
X144617205Y-87990256D01*
X144695226Y-87801898D01*
X144735000Y-87601939D01*
X144735000Y-87398061D01*
X144695226Y-87198102D01*
X144617205Y-87009744D01*
X144503937Y-86840226D01*
X144359774Y-86696063D01*
X144190256Y-86582795D01*
X144001898Y-86504774D01*
X143801939Y-86465000D01*
X143598061Y-86465000D01*
X143398102Y-86504774D01*
X143209744Y-86582795D01*
X143040226Y-86696063D01*
X142896063Y-86840226D01*
X142782795Y-87009744D01*
X142704774Y-87198102D01*
X142665000Y-87398061D01*
X142665000Y-87601939D01*
X142704774Y-87801898D01*
X142782795Y-87990256D01*
X142896063Y-88159774D01*
X142940001Y-88203712D01*
X142940000Y-91085198D01*
X142560199Y-91465000D01*
X142498061Y-91465000D01*
X142298102Y-91504774D01*
X142109744Y-91582795D01*
X141940226Y-91696063D01*
X141796063Y-91840226D01*
X141682795Y-92009744D01*
X141604774Y-92198102D01*
X141565000Y-92398061D01*
X127860000Y-92398061D01*
X127860000Y-87276349D01*
X128803256Y-87276349D01*
X129007362Y-87632867D01*
X129450223Y-87863575D01*
X129929583Y-88003452D01*
X130427021Y-88047123D01*
X130923422Y-87992909D01*
X131399707Y-87842894D01*
X131792638Y-87632867D01*
X131996744Y-87276349D01*
X130400000Y-85679605D01*
X128803256Y-87276349D01*
X127860000Y-87276349D01*
X127860000Y-85592242D01*
X127907091Y-86023422D01*
X128057106Y-86499707D01*
X128267133Y-86892638D01*
X128623651Y-87096744D01*
X130220395Y-85500000D01*
X130579605Y-85500000D01*
X132176349Y-87096744D01*
X132532867Y-86892638D01*
X132763575Y-86449777D01*
X132903452Y-85970417D01*
X132947123Y-85472979D01*
X132892909Y-84976578D01*
X132742894Y-84500293D01*
X132532867Y-84107362D01*
X132176349Y-83903256D01*
X130579605Y-85500000D01*
X130220395Y-85500000D01*
X128623651Y-83903256D01*
X128267133Y-84107362D01*
X128036425Y-84550223D01*
X127896548Y-85029583D01*
X127860000Y-85445886D01*
X127860000Y-83723651D01*
X128803256Y-83723651D01*
X130400000Y-85320395D01*
X131996744Y-83723651D01*
X131792638Y-83367133D01*
X131349777Y-83136425D01*
X130870417Y-82996548D01*
X130372979Y-82952877D01*
X129876578Y-83007091D01*
X129400293Y-83157106D01*
X129007362Y-83367133D01*
X128803256Y-83723651D01*
X127860000Y-83723651D01*
X127860000Y-81598061D01*
X143465000Y-81598061D01*
X143465000Y-81801939D01*
X143504774Y-82001898D01*
X143582795Y-82190256D01*
X143696063Y-82359774D01*
X143840226Y-82503937D01*
X144009744Y-82617205D01*
X144198102Y-82695226D01*
X144398061Y-82735000D01*
X144601939Y-82735000D01*
X144801898Y-82695226D01*
X144990256Y-82617205D01*
X145159774Y-82503937D01*
X145303937Y-82359774D01*
X145417205Y-82190256D01*
X145495226Y-82001898D01*
X145535000Y-81801939D01*
X145535000Y-81739802D01*
X146688800Y-80586003D01*
X146688809Y-80585992D01*
X146914801Y-80360000D01*
X148469779Y-80360000D01*
X148422930Y-80473102D01*
X148383156Y-80673061D01*
X148383156Y-80876939D01*
X148422930Y-81076898D01*
X148500951Y-81265256D01*
X148614219Y-81434774D01*
X148658156Y-81478711D01*
X148658156Y-81480834D01*
X148654480Y-81518156D01*
X148658156Y-81555478D01*
X148658156Y-81555489D01*
X148669153Y-81667142D01*
X148697473Y-81760500D01*
X148712610Y-81810402D01*
X148783182Y-81942432D01*
X148824064Y-81992246D01*
X148878156Y-82058157D01*
X148907154Y-82081955D01*
X149240000Y-82414802D01*
X149240001Y-90296288D01*
X149196063Y-90340226D01*
X149082795Y-90509744D01*
X149004774Y-90698102D01*
X148965000Y-90898061D01*
X148965000Y-91101939D01*
X149004774Y-91301898D01*
X149082795Y-91490256D01*
X149196063Y-91659774D01*
X149340226Y-91803937D01*
X149509744Y-91917205D01*
X149698102Y-91995226D01*
X149898061Y-92035000D01*
X149965001Y-92035000D01*
X149965001Y-92201939D01*
X150004775Y-92401898D01*
X150082796Y-92590256D01*
X150196064Y-92759774D01*
X150340227Y-92903937D01*
X150509745Y-93017205D01*
X150698103Y-93095226D01*
X150898062Y-93135000D01*
X151101940Y-93135000D01*
X151301899Y-93095226D01*
X151490257Y-93017205D01*
X151659775Y-92903937D01*
X151803938Y-92759774D01*
X151917206Y-92590256D01*
X151995227Y-92401898D01*
X152035001Y-92201939D01*
X152035001Y-91998061D01*
X151995227Y-91798102D01*
X151917206Y-91609744D01*
X151803938Y-91440226D01*
X151760001Y-91396289D01*
X151760001Y-87476349D01*
X158603256Y-87476349D01*
X158807362Y-87832867D01*
X159250223Y-88063575D01*
X159729583Y-88203452D01*
X160227021Y-88247123D01*
X160723422Y-88192909D01*
X161199707Y-88042894D01*
X161592638Y-87832867D01*
X161796744Y-87476349D01*
X160200000Y-85879605D01*
X158603256Y-87476349D01*
X151760001Y-87476349D01*
X151760001Y-85727021D01*
X157652877Y-85727021D01*
X157707091Y-86223422D01*
X157857106Y-86699707D01*
X158067133Y-87092638D01*
X158423651Y-87296744D01*
X160020395Y-85700000D01*
X158423651Y-84103256D01*
X158067133Y-84307362D01*
X157836425Y-84750223D01*
X157696548Y-85229583D01*
X157652877Y-85727021D01*
X151760001Y-85727021D01*
X151760001Y-81037323D01*
X151763677Y-81000000D01*
X151760001Y-80962677D01*
X151760001Y-80962668D01*
X151749004Y-80851015D01*
X151734650Y-80803697D01*
X151735000Y-80801939D01*
X151735000Y-80598061D01*
X151695226Y-80398102D01*
X151679444Y-80360000D01*
X152785199Y-80360000D01*
X153340001Y-80914803D01*
X153340000Y-83096289D01*
X153296063Y-83140226D01*
X153182795Y-83309744D01*
X153104774Y-83498102D01*
X153065000Y-83698061D01*
X153065000Y-83901939D01*
X153104774Y-84101898D01*
X153182795Y-84290256D01*
X153296063Y-84459774D01*
X153440226Y-84603937D01*
X153609744Y-84717205D01*
X153798102Y-84795226D01*
X153998061Y-84835000D01*
X154201939Y-84835000D01*
X154401898Y-84795226D01*
X154590256Y-84717205D01*
X154759774Y-84603937D01*
X154903937Y-84459774D01*
X155017205Y-84290256D01*
X155095226Y-84101898D01*
X155130681Y-83923651D01*
X158603256Y-83923651D01*
X160200000Y-85520395D01*
X161796744Y-83923651D01*
X161592638Y-83567133D01*
X161149777Y-83336425D01*
X160670417Y-83196548D01*
X160316086Y-83165441D01*
X160319180Y-83164502D01*
X160429494Y-83105537D01*
X160526185Y-83026185D01*
X160605537Y-82929494D01*
X160664502Y-82819180D01*
X160700812Y-82699482D01*
X160713072Y-82575000D01*
X160710000Y-82185750D01*
X160551250Y-82027000D01*
X159527000Y-82027000D01*
X159527000Y-83051250D01*
X159682224Y-83206474D01*
X159676578Y-83207091D01*
X159200293Y-83357106D01*
X158807362Y-83567133D01*
X158603256Y-83923651D01*
X155130681Y-83923651D01*
X155135000Y-83901939D01*
X155135000Y-83698061D01*
X155095226Y-83498102D01*
X155017205Y-83309744D01*
X154903937Y-83140226D01*
X154860000Y-83096289D01*
X154860000Y-82575000D01*
X158086928Y-82575000D01*
X158099188Y-82699482D01*
X158135498Y-82819180D01*
X158194463Y-82929494D01*
X158273815Y-83026185D01*
X158370506Y-83105537D01*
X158480820Y-83164502D01*
X158600518Y-83200812D01*
X158725000Y-83213072D01*
X159114250Y-83210000D01*
X159273000Y-83051250D01*
X159273000Y-82027000D01*
X158248750Y-82027000D01*
X158090000Y-82185750D01*
X158086928Y-82575000D01*
X154860000Y-82575000D01*
X154860000Y-81225000D01*
X158086928Y-81225000D01*
X158090000Y-81614250D01*
X158248750Y-81773000D01*
X159273000Y-81773000D01*
X159273000Y-81753000D01*
X159527000Y-81753000D01*
X159527000Y-81773000D01*
X160551250Y-81773000D01*
X160710000Y-81614250D01*
X160713072Y-81225000D01*
X160700812Y-81100518D01*
X160664502Y-80980820D01*
X160605537Y-80870506D01*
X160526185Y-80773815D01*
X160439303Y-80702513D01*
X160560907Y-80520518D01*
X160659658Y-80282113D01*
X160710000Y-80029024D01*
X160710000Y-79770976D01*
X160659658Y-79517887D01*
X160560907Y-79279482D01*
X160417544Y-79064923D01*
X160235077Y-78882456D01*
X160020518Y-78739093D01*
X159782113Y-78640342D01*
X159529024Y-78590000D01*
X159270976Y-78590000D01*
X159017887Y-78640342D01*
X158779482Y-78739093D01*
X158564923Y-78882456D01*
X158382456Y-79064923D01*
X158239093Y-79279482D01*
X158140342Y-79517887D01*
X158090000Y-79770976D01*
X158090000Y-80029024D01*
X158140342Y-80282113D01*
X158239093Y-80520518D01*
X158360697Y-80702513D01*
X158273815Y-80773815D01*
X158194463Y-80870506D01*
X158135498Y-80980820D01*
X158099188Y-81100518D01*
X158086928Y-81225000D01*
X154860000Y-81225000D01*
X154860000Y-80637333D01*
X154863677Y-80600000D01*
X154849003Y-80451014D01*
X154805546Y-80307753D01*
X154734974Y-80175724D01*
X154663799Y-80088997D01*
X154640001Y-80059999D01*
X154611003Y-80036201D01*
X153663804Y-79089002D01*
X153640001Y-79059999D01*
X153524276Y-78965026D01*
X153392247Y-78894454D01*
X153248986Y-78850997D01*
X153137333Y-78840000D01*
X153137322Y-78840000D01*
X153100000Y-78836324D01*
X153062678Y-78840000D01*
X146637322Y-78840000D01*
X146599999Y-78836324D01*
X146562676Y-78840000D01*
X146562667Y-78840000D01*
X146451014Y-78850997D01*
X146347306Y-78882456D01*
X146307753Y-78894454D01*
X146175723Y-78965026D01*
X146133146Y-78999969D01*
X146059999Y-79059999D01*
X146036196Y-79089003D01*
X145614008Y-79511191D01*
X145613997Y-79511200D01*
X144460198Y-80665000D01*
X144398061Y-80665000D01*
X144198102Y-80704774D01*
X144009744Y-80782795D01*
X143840226Y-80896063D01*
X143696063Y-81040226D01*
X143582795Y-81209744D01*
X143504774Y-81398102D01*
X143465000Y-81598061D01*
X127860000Y-81598061D01*
X127860000Y-76860000D01*
X162440000Y-76860000D01*
X162440000Y-84507793D01*
G37*
%TD.AperFunction*%
%TD*%
M02*
