%TF.GenerationSoftware,KiCad,Pcbnew,5.1.10-88a1d61d58~90~ubuntu21.04.1*%
%TF.CreationDate,2021-08-03T21:09:56+05:30*%
%TF.ProjectId,The Sixth Eye KiCAD,54686520-5369-4787-9468-20457965204b,v2*%
%TF.SameCoordinates,Original*%
%TF.FileFunction,Other,Fab,Top*%
%FSLAX46Y46*%
G04 Gerber Fmt 4.6, Leading zero omitted, Abs format (unit mm)*
G04 Created by KiCad (PCBNEW 5.1.10-88a1d61d58~90~ubuntu21.04.1) date 2021-08-03 21:09:56*
%MOMM*%
%LPD*%
G01*
G04 APERTURE LIST*
%ADD10C,0.100000*%
%ADD11C,0.150000*%
G04 APERTURE END LIST*
D10*
%TO.C,Y1*%
X154200000Y-101500000D02*
X158900000Y-101500000D01*
X158900000Y-101500000D02*
X158900000Y-90100000D01*
X158900000Y-90100000D02*
X154200000Y-90100000D01*
X154200000Y-90100000D02*
X154200000Y-101500000D01*
X154435000Y-98815000D02*
X154435000Y-92785000D01*
X158665000Y-98815000D02*
X158665000Y-92785000D01*
X158665000Y-98815000D02*
G75*
G02*
X154435000Y-98815000I-2115000J0D01*
G01*
X158665000Y-92785000D02*
G75*
G03*
X154435000Y-92785000I-2115000J0D01*
G01*
D11*
%TO.C,U2*%
X142335000Y-98655000D02*
X141335000Y-97655000D01*
X148335000Y-98655000D02*
X142335000Y-98655000D01*
X148335000Y-91655000D02*
X148335000Y-98655000D01*
X141335000Y-91655000D02*
X148335000Y-91655000D01*
X141335000Y-97655000D02*
X141335000Y-91655000D01*
D10*
%TO.C,J1*%
X167020000Y-82900000D02*
X161370000Y-82900000D01*
X161370000Y-82900000D02*
X160670000Y-82200000D01*
X160670000Y-82200000D02*
X160670000Y-78900000D01*
X160670000Y-78900000D02*
X167020000Y-78900000D01*
X167020000Y-78900000D02*
X167020000Y-82900000D01*
X159400000Y-82200000D02*
X160670000Y-82200000D01*
X160670000Y-81600000D02*
X159400000Y-81600000D01*
X159400000Y-81600000D02*
X159400000Y-82200000D01*
X159400000Y-80200000D02*
X160670000Y-80200000D01*
X160670000Y-79600000D02*
X159400000Y-79600000D01*
X159400000Y-79600000D02*
X159400000Y-80200000D01*
%TO.C,U1*%
X129720000Y-81400000D02*
X130570000Y-81400000D01*
X131070000Y-80900000D02*
X131070000Y-79200000D01*
X129720000Y-81400000D02*
X129720000Y-79200000D01*
X129720000Y-79200000D02*
X131070000Y-79200000D01*
X130570000Y-81400000D02*
X131070000Y-80900000D01*
%TO.C,R1*%
X141800000Y-85300000D02*
X141800000Y-88500000D01*
X140200000Y-85300000D02*
X141800000Y-85300000D01*
X140200000Y-88500000D02*
X140200000Y-85300000D01*
X141800000Y-88500000D02*
X140200000Y-88500000D01*
%TO.C,C1*%
X134785000Y-89580000D02*
X136385000Y-89580000D01*
X134785000Y-86380000D02*
X134785000Y-89580000D01*
X135985000Y-86380000D02*
X134785000Y-86380000D01*
X136385000Y-86780000D02*
X135985000Y-86380000D01*
X136385000Y-89580000D02*
X136385000Y-86780000D01*
%TO.C,C2*%
X137500000Y-78000000D02*
X134300000Y-78000000D01*
X137500000Y-84000000D02*
X137500000Y-78000000D01*
X135100000Y-84000000D02*
X137500000Y-84000000D01*
X134300000Y-83200000D02*
X135100000Y-84000000D01*
X134300000Y-78000000D02*
X134300000Y-83200000D01*
%TO.C,L1*%
X128800000Y-88250000D02*
X132000000Y-88250000D01*
X128800000Y-90750000D02*
X128800000Y-88250000D01*
X132000000Y-90750000D02*
X128800000Y-90750000D01*
X132000000Y-88250000D02*
X132000000Y-90750000D01*
%TO.C,J3*%
X144700000Y-83005000D02*
X143250000Y-83005000D01*
X144700000Y-82605000D02*
X144700000Y-83005000D01*
X143250000Y-82605000D02*
X144700000Y-82605000D01*
X144700000Y-80465000D02*
X143250000Y-80465000D01*
X144700000Y-80065000D02*
X144700000Y-80465000D01*
X143250000Y-80065000D02*
X144700000Y-80065000D01*
X139700000Y-81735000D02*
X141150000Y-81735000D01*
X139700000Y-81335000D02*
X139700000Y-81735000D01*
X141150000Y-81335000D02*
X139700000Y-81335000D01*
X139700000Y-79195000D02*
X141150000Y-79195000D01*
X139700000Y-78795000D02*
X139700000Y-79195000D01*
X141150000Y-78795000D02*
X139700000Y-78795000D01*
X143250000Y-78360000D02*
X143250000Y-83440000D01*
X141150000Y-78795000D02*
X141585000Y-78360000D01*
X141150000Y-83440000D02*
X141150000Y-78795000D01*
X141585000Y-78360000D02*
X143250000Y-78360000D01*
X143250000Y-83440000D02*
X141150000Y-83440000D01*
%TO.C,C3*%
X161525000Y-100000000D02*
X160275000Y-100000000D01*
X160275000Y-100000000D02*
X160275000Y-98000000D01*
X160275000Y-98000000D02*
X161525000Y-98000000D01*
X161525000Y-98000000D02*
X161525000Y-100000000D01*
%TO.C,C4*%
X160175000Y-93600000D02*
X160175000Y-91600000D01*
X161425000Y-93600000D02*
X160175000Y-93600000D01*
X161425000Y-91600000D02*
X161425000Y-93600000D01*
X160175000Y-91600000D02*
X161425000Y-91600000D01*
%TO.C,R2*%
X144000000Y-86712500D02*
X144000000Y-85887500D01*
X144000000Y-85887500D02*
X145600000Y-85887500D01*
X145600000Y-85887500D02*
X145600000Y-86712500D01*
X145600000Y-86712500D02*
X144000000Y-86712500D01*
%TO.C,U3*%
X152350000Y-83000000D02*
X151600000Y-82250000D01*
X156600000Y-83000000D02*
X152350000Y-83000000D01*
X156600000Y-80000000D02*
X156600000Y-83000000D01*
X151600000Y-80000000D02*
X156600000Y-80000000D01*
X151600000Y-82250000D02*
X151600000Y-80000000D01*
%TO.C,C6*%
X151700000Y-84275000D02*
X151700000Y-85125000D01*
X153300000Y-84275000D02*
X151700000Y-84275000D01*
X153300000Y-84825000D02*
X153300000Y-84275000D01*
X153000000Y-85125000D02*
X153300000Y-84825000D01*
X151700000Y-85125000D02*
X153000000Y-85125000D01*
%TO.C,C5*%
X151700000Y-87025000D02*
X153000000Y-87025000D01*
X153000000Y-87025000D02*
X153300000Y-86725000D01*
X153300000Y-86725000D02*
X153300000Y-86175000D01*
X153300000Y-86175000D02*
X151700000Y-86175000D01*
X151700000Y-86175000D02*
X151700000Y-87025000D01*
%TO.C,Q1*%
X147800000Y-84650000D02*
X147800000Y-87100000D01*
X148350000Y-84080000D02*
X149200000Y-84080000D01*
X147800000Y-84650000D02*
X148350000Y-84080000D01*
X149200000Y-84080000D02*
X149200000Y-87120000D01*
X147800000Y-87120000D02*
X149200000Y-87120000D01*
%TO.C,J2*%
X131700000Y-95300000D02*
X132325000Y-96300000D01*
X131075000Y-96300000D02*
X131700000Y-95300000D01*
X135450000Y-96300000D02*
X132950000Y-96300000D01*
X135450000Y-91800000D02*
X135450000Y-96300000D01*
X136650000Y-91800000D02*
X135450000Y-91800000D01*
X136650000Y-103300000D02*
X136650000Y-91800000D01*
X132950000Y-103300000D02*
X136650000Y-103300000D01*
X130450000Y-96300000D02*
X132950000Y-96300000D01*
X130450000Y-91800000D02*
X130450000Y-96300000D01*
X129250000Y-91800000D02*
X130450000Y-91800000D01*
X129250000Y-103300000D02*
X129250000Y-91800000D01*
X132950000Y-103300000D02*
X129250000Y-103300000D01*
%TD*%
M02*
