%TF.GenerationSoftware,KiCad,Pcbnew,5.1.10-88a1d61d58~90~ubuntu21.04.1*%
%TF.CreationDate,2021-08-03T21:09:56+05:30*%
%TF.ProjectId,The Sixth Eye KiCAD,54686520-5369-4787-9468-20457965204b,v2*%
%TF.SameCoordinates,Original*%
%TF.FileFunction,Paste,Top*%
%TF.FilePolarity,Positive*%
%FSLAX46Y46*%
G04 Gerber Fmt 4.6, Leading zero omitted, Abs format (unit mm)*
G04 Created by KiCad (PCBNEW 5.1.10-88a1d61d58~90~ubuntu21.04.1) date 2021-08-03 21:09:56*
%MOMM*%
%LPD*%
G01*
G04 APERTURE LIST*
%ADD10R,2.000000X4.500000*%
%ADD11R,0.550000X1.600000*%
%ADD12R,1.600000X0.550000*%
%ADD13R,1.500000X0.300000*%
%ADD14R,3.000000X0.650000*%
%ADD15R,0.900000X0.800000*%
G04 APERTURE END LIST*
D10*
%TO.C,Y1*%
X156550000Y-100050000D03*
X156550000Y-91550000D03*
%TD*%
D11*
%TO.C,U2*%
X142035000Y-99405000D03*
X142835000Y-99405000D03*
X143635000Y-99405000D03*
X144435000Y-99405000D03*
X145235000Y-99405000D03*
X146035000Y-99405000D03*
X146835000Y-99405000D03*
X147635000Y-99405000D03*
D12*
X149085000Y-97955000D03*
X149085000Y-97155000D03*
X149085000Y-96355000D03*
X149085000Y-95555000D03*
X149085000Y-94755000D03*
X149085000Y-93955000D03*
X149085000Y-93155000D03*
X149085000Y-92355000D03*
D11*
X147635000Y-90905000D03*
X146835000Y-90905000D03*
X146035000Y-90905000D03*
X145235000Y-90905000D03*
X144435000Y-90905000D03*
X143635000Y-90905000D03*
X142835000Y-90905000D03*
X142035000Y-90905000D03*
D12*
X140585000Y-92355000D03*
X140585000Y-93155000D03*
X140585000Y-93955000D03*
X140585000Y-94755000D03*
X140585000Y-95555000D03*
X140585000Y-96355000D03*
X140585000Y-97155000D03*
X140585000Y-97955000D03*
%TD*%
D13*
%TO.C,U1*%
X131550000Y-81050000D03*
X131550000Y-80550000D03*
X131550000Y-80050000D03*
X131550000Y-79550000D03*
X129250000Y-79550000D03*
X129250000Y-80050000D03*
X129250000Y-80550000D03*
X129250000Y-81050000D03*
%TD*%
%TO.C,R1*%
G36*
G01*
X141625003Y-88925000D02*
X140374997Y-88925000D01*
G75*
G02*
X140125000Y-88675003I0J249997D01*
G01*
X140125000Y-88049997D01*
G75*
G02*
X140374997Y-87800000I249997J0D01*
G01*
X141625003Y-87800000D01*
G75*
G02*
X141875000Y-88049997I0J-249997D01*
G01*
X141875000Y-88675003D01*
G75*
G02*
X141625003Y-88925000I-249997J0D01*
G01*
G37*
G36*
G01*
X141625003Y-86000000D02*
X140374997Y-86000000D01*
G75*
G02*
X140125000Y-85750003I0J249997D01*
G01*
X140125000Y-85124997D01*
G75*
G02*
X140374997Y-84875000I249997J0D01*
G01*
X141625003Y-84875000D01*
G75*
G02*
X141875000Y-85124997I0J-249997D01*
G01*
X141875000Y-85750003D01*
G75*
G02*
X141625003Y-86000000I-249997J0D01*
G01*
G37*
%TD*%
%TO.C,C1*%
G36*
G01*
X135159999Y-85755000D02*
X136010001Y-85755000D01*
G75*
G02*
X136260000Y-86004999I0J-249999D01*
G01*
X136260000Y-87080001D01*
G75*
G02*
X136010001Y-87330000I-249999J0D01*
G01*
X135159999Y-87330000D01*
G75*
G02*
X134910000Y-87080001I0J249999D01*
G01*
X134910000Y-86004999D01*
G75*
G02*
X135159999Y-85755000I249999J0D01*
G01*
G37*
G36*
G01*
X135159999Y-88630000D02*
X136010001Y-88630000D01*
G75*
G02*
X136260000Y-88879999I0J-249999D01*
G01*
X136260000Y-89955001D01*
G75*
G02*
X136010001Y-90205000I-249999J0D01*
G01*
X135159999Y-90205000D01*
G75*
G02*
X134910000Y-89955001I0J249999D01*
G01*
X134910000Y-88879999D01*
G75*
G02*
X135159999Y-88630000I249999J0D01*
G01*
G37*
%TD*%
%TO.C,C2*%
G36*
G01*
X136825001Y-84675000D02*
X134974999Y-84675000D01*
G75*
G02*
X134725000Y-84425001I0J249999D01*
G01*
X134725000Y-82674999D01*
G75*
G02*
X134974999Y-82425000I249999J0D01*
G01*
X136825001Y-82425000D01*
G75*
G02*
X137075000Y-82674999I0J-249999D01*
G01*
X137075000Y-84425001D01*
G75*
G02*
X136825001Y-84675000I-249999J0D01*
G01*
G37*
G36*
G01*
X136825001Y-79575000D02*
X134974999Y-79575000D01*
G75*
G02*
X134725000Y-79325001I0J249999D01*
G01*
X134725000Y-77574999D01*
G75*
G02*
X134974999Y-77325000I249999J0D01*
G01*
X136825001Y-77325000D01*
G75*
G02*
X137075000Y-77574999I0J-249999D01*
G01*
X137075000Y-79325001D01*
G75*
G02*
X136825001Y-79575000I-249999J0D01*
G01*
G37*
%TD*%
%TO.C,L1*%
G36*
G01*
X132425000Y-88425000D02*
X132425000Y-90575000D01*
G75*
G02*
X132175000Y-90825000I-250000J0D01*
G01*
X131425000Y-90825000D01*
G75*
G02*
X131175000Y-90575000I0J250000D01*
G01*
X131175000Y-88425000D01*
G75*
G02*
X131425000Y-88175000I250000J0D01*
G01*
X132175000Y-88175000D01*
G75*
G02*
X132425000Y-88425000I0J-250000D01*
G01*
G37*
G36*
G01*
X129625000Y-88425000D02*
X129625000Y-90575000D01*
G75*
G02*
X129375000Y-90825000I-250000J0D01*
G01*
X128625000Y-90825000D01*
G75*
G02*
X128375000Y-90575000I0J250000D01*
G01*
X128375000Y-88425000D01*
G75*
G02*
X128625000Y-88175000I250000J0D01*
G01*
X129375000Y-88175000D01*
G75*
G02*
X129625000Y-88425000I0J-250000D01*
G01*
G37*
%TD*%
D14*
%TO.C,J3*%
X140700000Y-78995000D03*
X140700000Y-81535000D03*
X143700000Y-80265000D03*
X143700000Y-82805000D03*
%TD*%
%TO.C,C3*%
G36*
G01*
X161375000Y-100625000D02*
X160425000Y-100625000D01*
G75*
G02*
X160175000Y-100375000I0J250000D01*
G01*
X160175000Y-99700000D01*
G75*
G02*
X160425000Y-99450000I250000J0D01*
G01*
X161375000Y-99450000D01*
G75*
G02*
X161625000Y-99700000I0J-250000D01*
G01*
X161625000Y-100375000D01*
G75*
G02*
X161375000Y-100625000I-250000J0D01*
G01*
G37*
G36*
G01*
X161375000Y-98550000D02*
X160425000Y-98550000D01*
G75*
G02*
X160175000Y-98300000I0J250000D01*
G01*
X160175000Y-97625000D01*
G75*
G02*
X160425000Y-97375000I250000J0D01*
G01*
X161375000Y-97375000D01*
G75*
G02*
X161625000Y-97625000I0J-250000D01*
G01*
X161625000Y-98300000D01*
G75*
G02*
X161375000Y-98550000I-250000J0D01*
G01*
G37*
%TD*%
%TO.C,C4*%
G36*
G01*
X160325000Y-93050000D02*
X161275000Y-93050000D01*
G75*
G02*
X161525000Y-93300000I0J-250000D01*
G01*
X161525000Y-93975000D01*
G75*
G02*
X161275000Y-94225000I-250000J0D01*
G01*
X160325000Y-94225000D01*
G75*
G02*
X160075000Y-93975000I0J250000D01*
G01*
X160075000Y-93300000D01*
G75*
G02*
X160325000Y-93050000I250000J0D01*
G01*
G37*
G36*
G01*
X160325000Y-90975000D02*
X161275000Y-90975000D01*
G75*
G02*
X161525000Y-91225000I0J-250000D01*
G01*
X161525000Y-91900000D01*
G75*
G02*
X161275000Y-92150000I-250000J0D01*
G01*
X160325000Y-92150000D01*
G75*
G02*
X160075000Y-91900000I0J250000D01*
G01*
X160075000Y-91225000D01*
G75*
G02*
X160325000Y-90975000I250000J0D01*
G01*
G37*
%TD*%
%TO.C,R2*%
G36*
G01*
X143400000Y-86537500D02*
X143400000Y-86062500D01*
G75*
G02*
X143637500Y-85825000I237500J0D01*
G01*
X144137500Y-85825000D01*
G75*
G02*
X144375000Y-86062500I0J-237500D01*
G01*
X144375000Y-86537500D01*
G75*
G02*
X144137500Y-86775000I-237500J0D01*
G01*
X143637500Y-86775000D01*
G75*
G02*
X143400000Y-86537500I0J237500D01*
G01*
G37*
G36*
G01*
X145225000Y-86537500D02*
X145225000Y-86062500D01*
G75*
G02*
X145462500Y-85825000I237500J0D01*
G01*
X145962500Y-85825000D01*
G75*
G02*
X146200000Y-86062500I0J-237500D01*
G01*
X146200000Y-86537500D01*
G75*
G02*
X145962500Y-86775000I-237500J0D01*
G01*
X145462500Y-86775000D01*
G75*
G02*
X145225000Y-86537500I0J237500D01*
G01*
G37*
%TD*%
%TO.C,U3*%
G36*
G01*
X152425000Y-81800000D02*
X151775000Y-81800000D01*
G75*
G02*
X151625000Y-81650000I0J150000D01*
G01*
X151625000Y-81350000D01*
G75*
G02*
X151775000Y-81200000I150000J0D01*
G01*
X152425000Y-81200000D01*
G75*
G02*
X152575000Y-81350000I0J-150000D01*
G01*
X152575000Y-81650000D01*
G75*
G02*
X152425000Y-81800000I-150000J0D01*
G01*
G37*
G36*
G01*
X152250000Y-80975000D02*
X151950000Y-80975000D01*
G75*
G02*
X151800000Y-80825000I0J150000D01*
G01*
X151800000Y-80175000D01*
G75*
G02*
X151950000Y-80025000I150000J0D01*
G01*
X152250000Y-80025000D01*
G75*
G02*
X152400000Y-80175000I0J-150000D01*
G01*
X152400000Y-80825000D01*
G75*
G02*
X152250000Y-80975000I-150000J0D01*
G01*
G37*
G36*
G01*
X153050000Y-80975000D02*
X152750000Y-80975000D01*
G75*
G02*
X152600000Y-80825000I0J150000D01*
G01*
X152600000Y-80175000D01*
G75*
G02*
X152750000Y-80025000I150000J0D01*
G01*
X153050000Y-80025000D01*
G75*
G02*
X153200000Y-80175000I0J-150000D01*
G01*
X153200000Y-80825000D01*
G75*
G02*
X153050000Y-80975000I-150000J0D01*
G01*
G37*
G36*
G01*
X153850000Y-80975000D02*
X153550000Y-80975000D01*
G75*
G02*
X153400000Y-80825000I0J150000D01*
G01*
X153400000Y-80175000D01*
G75*
G02*
X153550000Y-80025000I150000J0D01*
G01*
X153850000Y-80025000D01*
G75*
G02*
X154000000Y-80175000I0J-150000D01*
G01*
X154000000Y-80825000D01*
G75*
G02*
X153850000Y-80975000I-150000J0D01*
G01*
G37*
G36*
G01*
X154650000Y-80975000D02*
X154350000Y-80975000D01*
G75*
G02*
X154200000Y-80825000I0J150000D01*
G01*
X154200000Y-80175000D01*
G75*
G02*
X154350000Y-80025000I150000J0D01*
G01*
X154650000Y-80025000D01*
G75*
G02*
X154800000Y-80175000I0J-150000D01*
G01*
X154800000Y-80825000D01*
G75*
G02*
X154650000Y-80975000I-150000J0D01*
G01*
G37*
G36*
G01*
X155450000Y-80975000D02*
X155150000Y-80975000D01*
G75*
G02*
X155000000Y-80825000I0J150000D01*
G01*
X155000000Y-80175000D01*
G75*
G02*
X155150000Y-80025000I150000J0D01*
G01*
X155450000Y-80025000D01*
G75*
G02*
X155600000Y-80175000I0J-150000D01*
G01*
X155600000Y-80825000D01*
G75*
G02*
X155450000Y-80975000I-150000J0D01*
G01*
G37*
G36*
G01*
X156250000Y-80975000D02*
X155950000Y-80975000D01*
G75*
G02*
X155800000Y-80825000I0J150000D01*
G01*
X155800000Y-80175000D01*
G75*
G02*
X155950000Y-80025000I150000J0D01*
G01*
X156250000Y-80025000D01*
G75*
G02*
X156400000Y-80175000I0J-150000D01*
G01*
X156400000Y-80825000D01*
G75*
G02*
X156250000Y-80975000I-150000J0D01*
G01*
G37*
G36*
G01*
X156425000Y-81800000D02*
X155775000Y-81800000D01*
G75*
G02*
X155625000Y-81650000I0J150000D01*
G01*
X155625000Y-81350000D01*
G75*
G02*
X155775000Y-81200000I150000J0D01*
G01*
X156425000Y-81200000D01*
G75*
G02*
X156575000Y-81350000I0J-150000D01*
G01*
X156575000Y-81650000D01*
G75*
G02*
X156425000Y-81800000I-150000J0D01*
G01*
G37*
G36*
G01*
X156250000Y-82975000D02*
X155950000Y-82975000D01*
G75*
G02*
X155800000Y-82825000I0J150000D01*
G01*
X155800000Y-82175000D01*
G75*
G02*
X155950000Y-82025000I150000J0D01*
G01*
X156250000Y-82025000D01*
G75*
G02*
X156400000Y-82175000I0J-150000D01*
G01*
X156400000Y-82825000D01*
G75*
G02*
X156250000Y-82975000I-150000J0D01*
G01*
G37*
G36*
G01*
X155450000Y-82975000D02*
X155150000Y-82975000D01*
G75*
G02*
X155000000Y-82825000I0J150000D01*
G01*
X155000000Y-82175000D01*
G75*
G02*
X155150000Y-82025000I150000J0D01*
G01*
X155450000Y-82025000D01*
G75*
G02*
X155600000Y-82175000I0J-150000D01*
G01*
X155600000Y-82825000D01*
G75*
G02*
X155450000Y-82975000I-150000J0D01*
G01*
G37*
G36*
G01*
X154650000Y-82975000D02*
X154350000Y-82975000D01*
G75*
G02*
X154200000Y-82825000I0J150000D01*
G01*
X154200000Y-82175000D01*
G75*
G02*
X154350000Y-82025000I150000J0D01*
G01*
X154650000Y-82025000D01*
G75*
G02*
X154800000Y-82175000I0J-150000D01*
G01*
X154800000Y-82825000D01*
G75*
G02*
X154650000Y-82975000I-150000J0D01*
G01*
G37*
G36*
G01*
X153850000Y-82975000D02*
X153550000Y-82975000D01*
G75*
G02*
X153400000Y-82825000I0J150000D01*
G01*
X153400000Y-82175000D01*
G75*
G02*
X153550000Y-82025000I150000J0D01*
G01*
X153850000Y-82025000D01*
G75*
G02*
X154000000Y-82175000I0J-150000D01*
G01*
X154000000Y-82825000D01*
G75*
G02*
X153850000Y-82975000I-150000J0D01*
G01*
G37*
G36*
G01*
X153050000Y-82975000D02*
X152750000Y-82975000D01*
G75*
G02*
X152600000Y-82825000I0J150000D01*
G01*
X152600000Y-82175000D01*
G75*
G02*
X152750000Y-82025000I150000J0D01*
G01*
X153050000Y-82025000D01*
G75*
G02*
X153200000Y-82175000I0J-150000D01*
G01*
X153200000Y-82825000D01*
G75*
G02*
X153050000Y-82975000I-150000J0D01*
G01*
G37*
G36*
G01*
X152250000Y-82975000D02*
X151950000Y-82975000D01*
G75*
G02*
X151800000Y-82825000I0J150000D01*
G01*
X151800000Y-82175000D01*
G75*
G02*
X151950000Y-82025000I150000J0D01*
G01*
X152250000Y-82025000D01*
G75*
G02*
X152400000Y-82175000I0J-150000D01*
G01*
X152400000Y-82825000D01*
G75*
G02*
X152250000Y-82975000I-150000J0D01*
G01*
G37*
%TD*%
%TO.C,C6*%
G36*
G01*
X152325000Y-84424999D02*
X152325000Y-84975001D01*
G75*
G02*
X152075001Y-85225000I-249999J0D01*
G01*
X151499999Y-85225000D01*
G75*
G02*
X151250000Y-84975001I0J249999D01*
G01*
X151250000Y-84424999D01*
G75*
G02*
X151499999Y-84175000I249999J0D01*
G01*
X152075001Y-84175000D01*
G75*
G02*
X152325000Y-84424999I0J-249999D01*
G01*
G37*
G36*
G01*
X153750000Y-84424999D02*
X153750000Y-84975001D01*
G75*
G02*
X153500001Y-85225000I-249999J0D01*
G01*
X152924999Y-85225000D01*
G75*
G02*
X152675000Y-84975001I0J249999D01*
G01*
X152675000Y-84424999D01*
G75*
G02*
X152924999Y-84175000I249999J0D01*
G01*
X153500001Y-84175000D01*
G75*
G02*
X153750000Y-84424999I0J-249999D01*
G01*
G37*
%TD*%
%TO.C,C5*%
G36*
G01*
X153750000Y-86324999D02*
X153750000Y-86875001D01*
G75*
G02*
X153500001Y-87125000I-249999J0D01*
G01*
X152924999Y-87125000D01*
G75*
G02*
X152675000Y-86875001I0J249999D01*
G01*
X152675000Y-86324999D01*
G75*
G02*
X152924999Y-86075000I249999J0D01*
G01*
X153500001Y-86075000D01*
G75*
G02*
X153750000Y-86324999I0J-249999D01*
G01*
G37*
G36*
G01*
X152325000Y-86324999D02*
X152325000Y-86875001D01*
G75*
G02*
X152075001Y-87125000I-249999J0D01*
G01*
X151499999Y-87125000D01*
G75*
G02*
X151250000Y-86875001I0J249999D01*
G01*
X151250000Y-86324999D01*
G75*
G02*
X151499999Y-86075000I249999J0D01*
G01*
X152075001Y-86075000D01*
G75*
G02*
X152325000Y-86324999I0J-249999D01*
G01*
G37*
%TD*%
D15*
%TO.C,Q1*%
X147500000Y-84650000D03*
X147500000Y-86550000D03*
X149500000Y-85600000D03*
%TD*%
M02*
